<svg xmlns="http://www.w3.org/2000/svg" width="100%" height="100%" viewBox="0 0 500 500" fill-rule="evenodd" stroke-linejoin="round" stroke-miterlimit="1.41421"><path d="M494.97 34.928c-4.75-6.25-12.15-9.925-19.975-9.925H0v50h57.5l94.024 258.547c3.575 9.875 12.95 16.45 23.475 16.45h224.997v-50H192.498l-18.2-50h250.697a25.03 25.03 0 0 0 24.05-18.15l50-174.998c2.15-7.525.625-15.65-4.075-21.925zM406.145 200H156.148l-45.45-125h331.146l-35.7 125z" fill-rule="nonzero"/><g transform="matrix(24.9997 0 0 24.9997 -49.9994 -74.9959)"><circle cx="10.5" cy="20.5" r="1.5"/><circle cx="16.5" cy="20.5" r="1.5"/></g></svg>