<svg xmlns="http://www.w3.org/2000/svg" width="100%" height="100%" viewBox="0 0 500 500" fill-rule="nonzero" stroke-linejoin="round" stroke-miterlimit="1.41421" fill="#fff"><path d="M250 0C112.15 0 0 112.15 0 250s112.15 250 250 250 250-112.15 250-250S387.85 0 250 0zm0 450c-110.275 0-200-89.725-200-200S139.725 50 250 50s200 89.725 200 200-89.725 200-200 200zm0-225c-50 0-50-15.65-50-25 0-12.1 17.525-25 50-25 29.625 0 34.65 15.95 35 25.45l25-.45h25c0-25.65-16.65-61.725-60-71.975V100.3h-50v26.825C175.725 135.4 150 167.8 150 200c0 28 13 75 100 75 50 0 50 16.9 50 25 0 10.375-15.5 25-50 25-46.025 0-49.725-21.425-50-25h-50c0 22.95 16.525 63.825 75 73v27h50v-27.125C324.275 364.6 350 332.2 350 300c0-28-13-75-100-75z"/></svg>