<svg xmlns="http://www.w3.org/2000/svg" width="100%" height="100%" viewBox="0 0 500 500" fill-rule="evenodd" stroke-linejoin="round" stroke-miterlimit="1.41421" fill="#fff"><path d="M488.78 395.156l-77.22-77.22c-15.375-15.344-40.844-14.875-56.75 1.063l-38.906 38.875-7.687-4.25c-24.562-13.625-58.188-32.28-93.562-67.687-35.5-35.47-54.156-69.156-67.812-93.75l-4.187-7.5 26.125-26.062 12.813-12.844c15.938-15.937 16.375-41.406 1.03-56.78l-77.187-77.22C90.094-3.563 64.594-3.094 48.656 12.843L27.5 35.312c-7.312 9.313-13.406 20.063-17.937 31.625-4.188 11.03-6.78 21.563-8 32.094-10.187 84.53 28.438 161.78 133.28 266.594C279.75 510.53 396.5 499.593 401.562 499.062c10.97-1.312 21.47-3.937 32.156-8.094 11.47-4.47 22.22-10.562 31.53-17.844l22.5-21.187c15.906-15.937 16.375-41.406 1.03-56.78z" fill-rule="nonzero"/></svg>