<?xml version="1.0" encoding="UTF-8" standalone="no"?>
<!DOCTYPE svg PUBLIC "-//W3C//DTD SVG 1.1//EN" "http://www.w3.org/Graphics/SVG/1.1/DTD/svg11.dtd">
<svg width="100%" height="100%" viewBox="0 0 500 500" version="1.1" xmlns="http://www.w3.org/2000/svg" xmlns:xlink="http://www.w3.org/1999/xlink" xml:space="preserve" xmlns:serif="http://www.serif.com/" style="fill-rule:evenodd;clip-rule:evenodd;stroke-linejoin:round;stroke-miterlimit:1.41421;">
    <g transform="matrix(1.09453,0,0,1.09453,0.000547264,1.38556e-13)">
        <path d="M109.641,324.332C98.218,324.332 88.511,328.329 80.516,336.323C72.524,344.324 68.525,354.029 68.525,365.452C68.525,376.876 72.521,386.581 80.516,394.582C88.514,402.576 98.221,406.573 109.641,406.573C120.872,406.573 130.53,402.576 138.621,394.582C146.709,386.591 150.753,376.876 150.753,365.452C150.753,354.029 146.71,344.331 138.621,336.323C130.529,328.336 120.872,324.332 109.641,324.332Z" style="fill-rule:nonzero;"/>
        <path d="M100.505,237.542C100.505,224.98 96.034,214.229 87.087,205.275C78.141,196.329 67.385,191.857 54.823,191.857C42.26,191.857 31.506,196.33 22.559,205.275C13.614,214.222 9.142,224.976 9.142,237.542C9.142,250.102 13.613,260.851 22.559,269.8C31.506,278.749 42.26,283.222 54.823,283.222C67.385,283.222 78.141,278.749 87.087,269.8C96.034,260.857 100.505,250.102 100.505,237.542Z" style="fill-rule:nonzero;"/>
        <path d="M365.454,132.48C371.73,132.48 377.116,130.24 381.583,125.769C386.056,121.294 388.297,115.915 388.297,109.635C388.297,103.352 386.056,97.977 381.583,93.505C377.113,89.03 371.73,86.794 365.454,86.794C359.171,86.794 353.791,89.034 349.318,93.505C344.848,97.978 342.611,103.352 342.611,109.635C342.611,115.918 344.848,121.294 349.318,125.769C353.791,130.244 359.171,132.48 365.454,132.48Z" style="fill-rule:nonzero;"/>
        <path d="M109.644,59.388C95.747,59.388 83.899,64.29 74.096,74.091C64.292,83.892 59.393,95.741 59.393,109.635C59.393,123.534 64.292,135.378 74.096,145.183C83.902,154.987 95.75,159.888 109.644,159.888C123.538,159.888 135.387,154.984 145.188,145.183C154.989,135.378 159.891,123.531 159.891,109.635C159.891,95.741 154.989,83.892 145.188,74.091C135.387,64.29 123.538,59.388 109.644,59.388Z" style="fill-rule:nonzero;"/>
        <path d="M439.684,218.125C434.356,212.795 427.885,210.133 420.274,210.133C412.656,210.133 406.185,212.795 400.857,218.125C395.532,223.455 392.87,229.928 392.87,237.546C392.87,245.156 395.532,251.638 400.857,256.956C406.188,262.288 412.656,264.95 420.274,264.95C427.885,264.95 434.36,262.288 439.684,256.956C445.016,251.632 447.675,245.156 447.675,237.546C447.675,229.932 445.02,223.458 439.684,218.125Z" style="fill-rule:nonzero;"/>
        <path d="M365.454,333.473C356.693,333.473 349.175,336.611 342.892,342.894C336.616,349.17 333.474,356.692 333.474,365.453C333.474,374.207 336.616,381.729 342.892,388.013C349.175,394.295 356.694,397.43 365.454,397.43C374.208,397.43 381.726,394.289 388.009,388.013C394.292,381.73 397.431,374.211 397.431,365.453C397.431,356.692 394.292,349.178 388.009,342.894C381.727,336.61 374.208,333.473 365.454,333.473Z" style="fill-rule:nonzero;"/>
        <path d="M237.547,383.717C227.459,383.717 218.845,387.293 211.703,394.432C204.568,401.571 200.998,410.18 200.998,420.269C200.998,430.358 204.564,438.968 211.703,446.106C218.845,453.245 227.455,456.818 237.547,456.818C247.636,456.818 256.246,453.245 263.385,446.106C270.524,438.968 274.093,430.358 274.093,420.269C274.093,410.18 270.524,401.571 263.385,394.432C256.246,387.293 247.636,383.717 237.547,383.717Z" style="fill-rule:nonzero;"/>
        <path d="M237.547,0C222.322,0 209.373,5.327 198.713,15.986C188.056,26.646 182.727,39.592 182.727,54.818C182.727,70.045 188.054,82.985 198.713,93.646C209.373,104.303 222.319,109.633 237.547,109.633C252.779,109.633 265.719,104.306 276.375,93.646C287.031,82.99 292.36,70.045 292.36,54.818C292.36,39.593 287.031,26.65 276.375,15.986C265.719,5.33 252.779,0 237.547,0Z" style="fill-rule:nonzero;"/>
    </g>
</svg>
