<svg xmlns="http://www.w3.org/2000/svg" width="100%" height="100%" viewBox="0 0 500 500" fill-rule="evenodd" stroke-linejoin="round" stroke-miterlimit="1.41421"><path d="M213.848 427.53a212.38 212.38 0 0 0 130.853-45.108l117.465 117.576 37.803-37.803-117.493-117.632c29.526-38.192 45.247-85.3 44.608-133.603a213.7 213.7 0 0 0-48.108-132.381c-30.498-37.414-72.8-63.385-119.937-73.662-47.164-10.305-96.383-4.305-139.686 17a213.73 213.73 0 0 0-98.8 100.355C-.11 165.907-5.39 215.293 5.583 262.317 16.555 309.37 43.11 351.312 80.912 381.3c37.83 29.998 84.69 46.303 132.936 46.22zm0-374.533c31.72.028 62.718 9.444 89.078 27.082s46.886 42.72 59.024 72.05c12.1 29.332 15.305 61.607 9.11 92.717-6.194 31.137-21.47 59.746-43.886 82.19s-50.997 37.72-82.106 43.914c-31.08 6.194-63.33 3.028-92.633-9.11a160.53 160.53 0 0 1-71.968-59.08c-17.6-26.387-27.026-57.413-27.054-89.16.028-42.58 16.943-83.412 47.025-113.55 30.082-30.11 70.885-47.025 113.4-47.053z" fill-rule="nonzero"/></svg>