<svg xmlns="http://www.w3.org/2000/svg" width="100%" height="100%" viewBox="0 0 500 500" fill-rule="evenodd" stroke-linejoin="round" stroke-miterlimit="1.41421"><path d="M250 250c-68.568 0-125-56.432-125-125S181.432 0 250 0s125 56.432 125 125-56.432 125-125 125zm0-50c41.136 0 75-33.864 75-75s-33.864-75-75-75-75 33.864-75 75 33.864 75 75 75zm225 275c0 13.705-11.295 25-25 25s-25-11.295-25-25v-50c0-41.136-33.864-75-75-75H150c-41.136 0-75 33.864-75 75v50c0 13.705-11.295 25-25 25s-25-11.295-25-25v-50c0-68.568 56.432-125 125-125h200c68.568 0 125 56.432 125 125v50z" fill-rule="nonzero"/></svg>