<?xml version="1.0" standalone="no"?>
<!DOCTYPE svg PUBLIC "-//W3C//DTD SVG 20010904//EN"
 "http://www.w3.org/TR/2001/REC-SVG-20010904/DTD/svg10.dtd">
<svg version="1.0" xmlns="http://www.w3.org/2000/svg"
 width="600.000000pt" height="600.000000pt" viewBox="0 0 600.000000 600.000000"
 preserveAspectRatio="xMidYMid meet">
<metadata>
Created by potrace 1.11, written by Peter Selinger 2001-2013
</metadata>
<g transform="translate(0.000000,600.000000) scale(0.100000,-0.100000)"
fill="#000000" stroke="none">
<path d="M1824 3211 c-108 -66 -112 -400 -5 -455 51 -27 89 -21 131 22 89 89
53 264 -57 279 -36 5 -45 2 -69 -22 l-27 -27 6 46 c9 62 32 104 62 112 35 9
55 -2 68 -36 8 -22 18 -30 35 -30 22 0 24 3 18 32 -17 87 -91 122 -162 79z
m96 -231 c55 -55 25 -180 -43 -180 -48 0 -88 75 -73 135 15 60 77 84 116 45z"/>
<path d="M2118 3215 c-14 -8 -37 -36 -50 -62 -20 -42 -23 -62 -23 -168 0 -106
3 -126 24 -168 23 -48 61 -77 101 -77 40 0 78 29 101 77 21 42 24 62 24 168 0
106 -3 126 -24 168 -34 71 -93 94 -153 62z m82 -55 c68 -36 63 -321 -6 -352
-67 -31 -111 59 -102 207 8 127 46 178 108 145z"/>
<path d="M2418 3215 c-14 -8 -37 -36 -50 -62 -20 -42 -23 -62 -23 -168 0 -106
3 -126 24 -168 23 -48 61 -77 101 -77 40 0 78 29 101 77 21 42 24 62 24 168 0
106 -3 126 -24 168 -34 71 -93 94 -153 62z m82 -55 c68 -36 63 -321 -6 -352
-67 -31 -111 59 -102 207 8 127 46 178 108 145z"/>
<path d="M3314 3211 c-108 -66 -112 -400 -5 -455 51 -27 89 -21 131 22 89 89
53 264 -57 279 -36 5 -45 2 -69 -22 l-27 -27 6 46 c9 62 32 104 62 112 35 9
55 -2 68 -36 8 -22 18 -30 35 -30 22 0 24 3 18 32 -17 87 -91 122 -162 79z
m96 -231 c55 -55 25 -180 -43 -180 -48 0 -88 75 -73 135 15 60 77 84 116 45z"/>
<path d="M3608 3215 c-14 -8 -37 -36 -50 -62 -20 -42 -23 -62 -23 -168 0 -106
3 -126 24 -168 23 -48 61 -77 101 -77 40 0 78 29 101 77 21 42 24 62 24 168 0
106 -3 126 -24 168 -34 71 -93 94 -153 62z m82 -55 c68 -36 63 -321 -6 -352
-67 -31 -111 59 -102 207 8 127 46 178 108 145z"/>
<path d="M3908 3215 c-14 -8 -37 -36 -50 -62 -20 -42 -23 -62 -23 -168 0 -106
3 -126 24 -168 23 -48 61 -77 101 -77 40 0 78 29 101 77 21 42 24 62 24 168 0
106 -3 126 -24 168 -34 71 -93 94 -153 62z m82 -55 c68 -36 63 -321 -6 -352
-67 -31 -111 59 -102 207 8 127 46 178 108 145z"/>
<path d="M2822 3043 c17 -32 38 -67 45 -78 20 -30 17 -42 -32 -126 -25 -43
-45 -81 -45 -84 0 -3 13 -5 30 -5 27 0 33 7 63 65 l33 66 34 -66 c32 -59 38
-65 67 -65 l31 0 -50 90 -50 90 44 77 c24 43 45 81 46 85 2 5 -9 8 -25 8 -25
0 -33 -8 -58 -55 -17 -30 -33 -55 -38 -55 -4 0 -19 25 -34 55 -25 50 -30 55
-60 55 l-33 0 32 -57z"/>
<path d="M4890 191 c0 -13 -8 -21 -22 -23 -18 -2 -23 -10 -23 -33 0 -25 4 -30
28 -33 27 -3 27 -2 27 52 0 31 -2 56 -5 56 -3 0 -5 -9 -5 -19z m-3 -47 c8 -21
-13 -42 -28 -27 -13 13 -5 43 11 43 6 0 13 -7 17 -16z"/>
<path d="M4971 157 c-1 -58 -1 -58 27 -55 23 3 27 8 27 33 0 23 -5 31 -22 33
-13 2 -23 12 -26 25 -2 12 -5 -4 -6 -36z m46 -13 c8 -21 -13 -42 -28 -27 -13
13 -5 43 11 43 6 0 13 -7 17 -16z"/>
<path d="M4361 143 c1 -26 3 -40 6 -31 2 9 14 18 26 20 16 2 22 10 22 28 0 20
-6 26 -27 28 -27 3 -28 2 -27 -45z m44 17 c0 -8 -8 -16 -17 -18 -13 -2 -18 3
-18 18 0 15 5 20 18 18 9 -2 17 -10 17 -18z"/>
<path d="M5183 145 c0 -27 2 -40 4 -27 3 17 11 22 33 22 22 0 30 -5 33 -22 2
-13 4 0 4 27 0 28 -2 40 -4 28 -3 -18 -11 -23 -33 -23 -22 0 -30 5 -33 23 -2
12 -4 0 -4 -28z"/>
<path d="M5282 183 c12 -3 18 -17 21 -46 l4 -42 1 42 c2 30 7 43 20 46 9 3 -1
5 -23 5 -22 0 -32 -2 -23 -5z"/>
<path d="M5361 143 l2 -48 7 40 c6 39 6 39 14 13 10 -36 32 -36 42 0 8 26 8
26 14 -13 l7 -40 2 48 c1 54 -11 61 -30 15 l-13 -31 -15 31 c-21 45 -31 40
-30 -15z"/>
<path d="M5482 148 l-2 -48 33 1 c29 2 29 2 5 6 -24 4 -27 10 -31 46 l-4 42
-1 -47z"/>
<path d="M5602 178 c-27 -27 -7 -78 29 -78 10 0 20 4 23 8 3 5 -4 8 -16 8 -29
-1 -46 28 -28 49 7 9 22 14 32 12 10 -3 16 -1 12 4 -8 13 -38 11 -52 -3z"/>
<path d="M5700 176 c-28 -35 11 -93 48 -70 35 22 22 84 -18 84 -10 0 -23 -7
-30 -14z m54 -19 c16 -25 -16 -56 -38 -37 -19 15 -20 32 -4 48 15 15 28 11 42
-11z"/>
<path d="M5791 143 l2 -48 7 40 c6 39 6 39 14 13 10 -36 32 -36 42 0 8 26 8
26 14 -13 l7 -40 2 48 c1 54 -11 61 -30 15 l-13 -31 -15 31 c-21 45 -31 40
-30 -15z"/>
<path d="M4434 156 c-11 -29 0 -51 26 -51 21 0 25 5 25 30 0 24 -5 31 -23 33
-13 2 -24 -3 -28 -12z m43 -12 c8 -21 -13 -42 -28 -27 -13 13 -5 43 11 43 6 0
13 -7 17 -16z"/>
<path d="M4517 145 c8 -41 20 -51 28 -24 l7 22 13 -23 c13 -25 19 -20 28 25
l6 30 -13 -28 -12 -28 -12 23 -11 23 -7 -24 -7 -23 -13 28 -13 29 6 -30z"/>
<path d="M4624 156 c-13 -34 25 -71 48 -48 8 8 5 9 -9 6 -12 -3 -24 -1 -27 5
-5 7 3 11 19 11 20 0 26 4 23 18 -4 22 -46 29 -54 8z m41 -6 c3 -5 -3 -10 -15
-10 -12 0 -18 5 -15 10 3 6 10 10 15 10 5 0 12 -4 15 -10z"/>
<path d="M4711 133 c1 -27 3 -31 6 -13 2 14 12 31 21 38 14 11 13 12 -6 12
-19 0 -22 -5 -21 -37z"/>
<path d="M4764 156 c-13 -34 25 -71 48 -48 8 8 5 9 -9 6 -12 -3 -24 -1 -27 5
-5 7 3 11 19 11 20 0 26 4 23 18 -4 22 -46 29 -54 8z m41 -6 c3 -5 -3 -10 -15
-10 -12 0 -18 5 -15 10 3 6 10 10 15 10 5 0 12 -4 15 -10z"/>
<path d="M5064 143 c20 -39 20 -38 0 -57 -8 -9 -11 -16 -6 -16 11 0 65 90 58
97 -2 3 -10 -5 -16 -18 l-12 -22 -20 24 -19 24 15 -32z"/>
</g>
</svg>
